<?xml version="1.0" standalone="no"?>
<!DOCTYPE svg PUBLIC "-//W3C//DTD SVG 20010904//EN"
 "http://www.w3.org/TR/2001/REC-SVG-20010904/DTD/svg10.dtd">
<svg version="1.0" xmlns="http://www.w3.org/2000/svg"
 width="167.000000pt" height="130.000000pt" viewBox="0 0 167.000000 130.000000"
 preserveAspectRatio="xMidYMid meet">

<g transform="translate(0.000000,130.000000) scale(0.100000,-0.100000)"
fill="#000000" stroke="none">
<path d="M595 1257 c-50 -20 -80 -45 -115 -94 -54 -75 -161 -183 -181 -183
-10 0 -34 -16 -53 -35 -95 -94 -31 -287 106 -320 15 -4 41 -2 58 3 16 6 30 10
30 9 0 -1 -14 -45 -30 -97 -16 -52 -27 -96 -24 -99 11 -12 28 25 54 117 34
118 45 198 33 231 -8 21 -11 17 -22 -31 -22 -99 -73 -123 -148 -69 -48 35 -73
84 -73 143 0 64 28 108 88 141 29 16 89 67 134 114 105 108 159 137 240 130
80 -7 126 -32 254 -141 74 -62 128 -99 160 -110 65 -22 90 -19 31 4 -58 22
-96 50 -206 152 -127 118 -254 169 -336 135z"/>
<path d="M1090 1011 c8 -6 43 -20 78 -32 106 -36 135 -70 186 -226 15 -46 32
-85 37 -89 19 -11 49 -84 49 -119 0 -53 -43 -129 -96 -170 -83 -62 -166 -71
-213 -21 l-23 25 21 64 22 65 81 -6 c100 -6 100 10 1 28 -73 12 -146 45 -197
86 -17 14 -78 80 -136 147 -69 80 -121 130 -150 146 l-45 24 46 -44 c25 -24
82 -90 127 -145 89 -111 146 -165 207 -196 22 -11 42 -22 44 -24 3 -3 -67
-173 -75 -183 -2 -2 -16 1 -30 8 -36 16 -39 10 -13 -33 23 -39 29 -115 15
-166 -15 -53 14 6 35 70 11 36 25 77 31 92 l10 28 28 -24 c66 -55 163 -38 254
45 106 97 121 184 52 301 -20 32 -44 88 -56 125 -45 146 -112 203 -268 228
-28 5 -33 4 -22 -4z"/>
<path d="M363 860 c-27 -16 -63 -60 -49 -60 2 0 27 12 54 26 66 34 123 34 193
-1 48 -25 52 -25 35 -7 -52 59 -171 80 -233 42z"/>
<path d="M445 436 c-46 -18 -75 -48 -75 -81 0 -36 66 -95 185 -165 53 -31 35
-14 -45 42 -89 63 -112 89 -108 124 5 47 43 59 188 58 135 -1 204 -17 281 -68
65 -43 93 -90 97 -163 6 -89 -10 -107 -93 -101 -56 4 -58 4 -30 -8 46 -20 102
-17 124 5 42 42 40 156 -2 220 -32 49 -100 96 -175 124 -76 27 -287 35 -347
13z"/>
</g>
</svg>
